HIERARCHY
ROOT Hips
{
	OFFSET 0.000000 0.000000 0.000000
	CHANNELS 6 Xposition Yposition Zposition Zrotation Yrotation Xrotation 
	JOINT LHipJoint
	{
		OFFSET 0.000000 0.000000 0.000000
		CHANNELS 3 Zrotation Yrotation Xrotation
		JOINT LeftUpLeg
		{
			OFFSET 1.363060 -1.794630 0.839290
			CHANNELS 3 Zrotation Yrotation Xrotation
			JOINT LeftLeg
			{
				OFFSET 2.448110 -6.726130 0.000000
				CHANNELS 3 Zrotation Yrotation Xrotation
				JOINT LeftFoot
				{
					OFFSET 2.562200 -7.039590 0.000000
					CHANNELS 3 Zrotation Yrotation Xrotation
					JOINT LeftToeBase
					{
						OFFSET 0.157640 -0.433110 2.322550
						CHANNELS 3 Zrotation Yrotation Xrotation
						End Site
						{
							OFFSET 0.000000 0.000000 0.000000
						}
					}
				}
			}
		}
	}
	JOINT RHipJoint
	{
		OFFSET 0.000000 0.000000 0.000000
		CHANNELS 3 Zrotation Yrotation Xrotation
		JOINT RightUpLeg
		{
			OFFSET -1.305520 -1.794630 0.839290
			CHANNELS 3 Zrotation Yrotation Xrotation
			JOINT RightLeg
			{
				OFFSET -2.542530 -6.985550 0.000000
				CHANNELS 3 Zrotation Yrotation Xrotation
				JOINT RightFoot
				{
					OFFSET -2.568260 -7.056230 0.000000
					CHANNELS 3 Zrotation Yrotation Xrotation
					JOINT RightToeBase
					{
						OFFSET -0.164730 -0.452590 2.363150
						CHANNELS 3 Zrotation Yrotation Xrotation
						End Site
						{
							OFFSET 0.000000 0.000000 0.000000
						}
					}
				}
			}
		}
	}
}
MOTION
Frames: 16
Frame Time: 0.008333
-2.744522 17.017727 0.105401 34.801930 82.789178 44.923728 -9.620997 0.799262 2.566450 -12.564633 -0.244182 -30.141703 -3.012534 -0.135069 10.726936 -0.489197 -3.564567 7.163698 -0.457700 -0.000000 -30.480300 10.984128 -3.152700 -1.545568 4.984993 -9.328025 -9.461331 -0.016476 -3.291930 44.926910 -0.704153 -1.958691 4.688970 -0.400299 -0.000000 -73.317300
-2.603368 17.040222 0.117310 34.108572 82.331452 44.174511 -9.576720 0.869049 2.476849 -12.818789 0.060022 -29.489998 -3.051039 -0.156354 10.812915 -0.478183 -3.502858 6.548825 -0.413300 -0.000001 -30.193700 11.159488 -3.010901 -1.622806 4.728012 -9.657992 -11.097684 -0.289686 -3.431651 47.748460 -1.004977 -3.891184 5.558953 -0.821100 -0.000000 -71.343600
-2.465110 17.062628 0.127003 32.668452 81.794950 42.716498 -9.561457 0.934526 2.386332 -12.997576 0.436742 -28.863900 -3.080794 -0.181546 10.813976 -0.459503 -3.389872 5.958405 -0.362400 -0.000000 -29.900600 11.283884 -2.847885 -1.668334 4.618684 -9.781670 -12.776216 -0.532919 -3.549726 50.457126 -1.329111 -6.023319 5.975488 -1.319000 -0.000000 -68.760800
-2.329386 17.085070 0.135221 30.776141 81.176119 40.833048 -9.564098 0.997834 2.289410 -13.127973 0.888067 -28.240423 -3.104513 -0.211864 10.714753 -0.433178 -3.211506 5.425112 -0.304000 0.000000 -29.621700 11.373511 -2.671208 -1.684557 4.617364 -9.726751 -14.473996 -0.745378 -3.652458 53.015570 -1.662018 -8.235131 5.938595 -1.829600 -0.000001 -65.698900
-2.195687 17.107692 0.142049 28.580107 80.479415 38.667415 -9.583642 1.059992 2.182054 -13.215276 1.435782 -27.626069 -3.123340 -0.245524 10.529949 -0.401698 -2.989721 4.957843 -0.243600 0.000000 -29.389300 11.432250 -2.489954 -1.670009 4.718189 -9.508690 -16.171257 -0.927942 -3.742209 55.383434 -1.989563 -10.407386 5.485108 -2.285500 0.000000 -62.286700
-2.063580 17.130704 0.147524 26.212775 79.715123 36.345501 -9.619239 1.121351 2.061407 -13.260749 2.093621 -27.025197 -3.138447 -0.280706 10.277419 -0.368087 -2.752780 4.555341 -0.186800 0.000000 -29.232500 11.463371 -2.311986 -1.625515 4.914305 -9.150231 -17.845910 -1.081568 -3.819926 57.522188 -2.296832 -12.418392 4.680883 -2.627000 0.000000 -58.653301
-1.932649 17.154145 0.151917 23.822574 78.896283 34.008992 -9.666615 1.181933 1.927015 -13.270985 2.853169 -26.430914 -3.151492 -0.316916 9.966566 -0.334542 -2.517851 4.212409 -0.135900 -0.000000 -29.169700 11.472888 -2.142506 -1.555266 5.184510 -8.684631 -19.477926 -1.206614 -3.886626 59.400930 -2.568213 -14.151484 3.610146 -2.812899 0.000000 -54.933500
-1.802573 17.177968 0.155649 21.529118 78.038626 31.771733 -9.721370 1.241291 1.780936 -13.252794 3.692639 -25.834646 -3.163966 -0.354193 9.604601 -0.302735 -2.297334 3.918699 -0.091900 0.000000 -29.207700 11.465799 -1.984690 -1.464947 5.505061 -8.148571 -21.051734 -1.302966 -3.942841 60.996398 -2.789052 -15.510302 2.368116 -2.830400 -0.000000 -51.263100
-1.673105 17.202066 0.158812 19.379175 77.163090 29.676525 -9.782464 1.298757 1.626358 -13.204391 4.590982 -25.233553 -3.176130 -0.391749 9.206016 -0.274283 -2.107493 3.658040 -0.056500 0.000000 -29.344000 11.443201 -1.840814 -1.360331 5.864441 -7.575703 -22.553913 -1.370118 -3.987909 62.290192 -2.947799 -16.432067 1.057539 -2.697500 -0.000000 -47.795500
-1.544039 17.226190 0.161745 17.419733 76.287540 27.767519 -9.846638 1.353874 1.468059 -13.130279 5.513995 -24.618804 -3.188297 -0.429976 8.775497 -0.249491 -1.949761 3.417279 -0.028800 -0.000000 -29.565800 11.407957 -1.710779 -1.248295 6.243011 -7.001075 -23.977362 -1.407656 -4.021785 63.273129 -3.036239 -16.883427 -0.224321 -2.453700 0.000001 -44.690800
-1.415308 17.250008 0.164678 15.661368 75.429885 26.053684 -9.912186 1.406465 1.311085 -13.031853 6.430889 -23.985359 -3.200020 -0.468939 8.319575 -0.228258 -1.823404 3.184653 -0.008000 0.000000 -29.854800 11.361448 -1.593777 -1.134617 6.629059 -6.454088 -25.319377 -1.415663 -4.044103 63.941539 -3.051225 -16.866938 -1.388032 -2.151400 0.000000 -42.122900
-1.286833 17.273163 0.167822 14.099354 74.603327 24.530301 -9.977572 1.456641 1.159407 -12.912204 7.315526 -23.328107 -3.210725 -0.508853 7.841496 -0.210049 -1.723175 2.952793 0.007500 0.000000 -30.190400 11.305147 -1.488125 -1.024490 7.012853 -5.958466 -26.580093 -1.395073 -4.054710 64.297398 -2.995026 -16.417394 -2.361155 -1.841600 -0.000000 -40.260300
-1.158583 17.295284 0.171475 12.721786 73.818578 23.187238 -10.041410 1.504907 1.017557 -12.776052 8.146812 -22.648575 -3.219883 -0.550102 7.343993 -0.194103 -1.640820 2.719099 0.019400 -0.000000 -30.550700 11.240494 -1.392286 -0.919992 7.389199 -5.530254 -27.767133 -1.347644 -4.053696 64.348136 -2.875468 -15.597787 -3.094449 -1.563300 -0.000000 -39.235400
-1.030523 17.315973 0.175807 11.509503 73.079244 22.007337 -10.103091 1.551944 0.886869 -12.629381 8.918233 -21.948912 -3.227388 -0.592726 6.829074 -0.179965 -1.571012 2.485307 0.029000 -0.000000 -30.918300 11.168561 -1.304360 -0.822721 7.755693 -5.177912 -28.886997 -1.275886 -4.041278 64.106066 -2.705170 -14.491832 -3.571509 -1.335900 -0.000000 -39.099600
-0.902635 17.334930 0.181109 10.444186 72.386076 20.974805 -10.162270 1.598710 0.767947 -12.479754 9.633378 -21.236767 -3.233719 -0.636732 6.299814 -0.167575 -1.511521 2.256690 0.036700 0.000000 -31.279400 11.090231 -1.223382 -0.731684 8.113226 -4.902854 -29.948648 -1.182232 -4.018063 63.587762 -2.499966 -13.194261 -3.811148 -1.160400 0.000001 -39.786700
-0.775031 17.351874 0.187503 9.506452 71.733138 20.067279 -10.219405 1.645971 0.656312 -12.333487 10.312079 -20.512359 -3.239826 -0.681563 5.756152 -0.157511 -1.466758 2.042350 0.041900 -0.000000 -31.629900 11.006260 -1.148089 -0.647789 8.462515 -4.701989 -30.950647 -1.068630 -3.984943 62.811830 -2.276492 -11.799617 -3.865217 -1.025200 -0.000000 -41.114100
